<?xml version="1.0" standalone="no"?>
<!DOCTYPE svg PUBLIC "-//W3C//DTD SVG 20010904//EN"
 "http://www.w3.org/TR/2001/REC-SVG-20010904/DTD/svg10.dtd">
<svg version="1.0" xmlns="http://www.w3.org/2000/svg"
 width="608.000000pt" height="608.000000pt" viewBox="0 0 608.000000 608.000000"
 preserveAspectRatio="xMidYMid meet">
<metadata>
Created by potrace 1.14, written by Peter Selinger 2001-2017
</metadata>
<g transform="translate(0.000000,608.000000) scale(0.100000,-0.100000)"
fill="#000000" stroke="none">
<path d="M570 4160 c0 -1235 4 -1937 10 -1967 6 -27 12 -66 14 -88 2 -22 7
-51 10 -65 7 -29 15 -67 20 -95 20 -99 100 -339 150 -450 41 -90 105 -216 126
-250 11 -16 26 -42 35 -57 8 -16 43 -67 77 -115 284 -407 690 -731 1148 -914
67 -27 107 -40 265 -85 63 -18 258 -52 350 -62 132 -13 556 -8 600 8 11 4 43
11 70 14 28 4 82 13 121 22 39 8 77 17 85 18 148 29 440 145 589 234 41 24 91
53 110 64 175 99 449 339 603 529 57 71 164 222 197 277 18 31 41 69 51 84 11
15 19 34 19 43 0 8 4 15 8 15 4 0 13 12 19 28 6 15 36 82 67 149 30 67 60 141
66 165 7 24 18 57 25 73 13 31 60 207 69 260 3 17 8 42 11 57 3 16 8 43 12 60
4 18 8 918 10 2001 l3 1967 -2470 0 -2470 0 0 -1920z"/>
</g>
</svg>
